<?xml version="1.0" encoding="utf-8"?>
<svg xmlns="http://www.w3.org/2000/svg" viewBox="0 0 122.74 17.59"><defs><style>.cls-1{fill:red;}</style></defs><g id="Layer_2" data-name="Layer 2"><g id="Livello_1" data-name="Livello 1"><polygon class="cls-1" points="109.56 9.99 112.46 9.99 111.01 7 109.56 9.99"/><path class="cls-1" d="M67.65,5.35H61.91V6.72h5.76a.62.62,0,0,0,.44-.19.6.6,0,0,0,.21-.48.72.72,0,0,0-.19-.5A.63.63,0,0,0,67.65,5.35Z"/><path class="cls-1" d="M121.79,0H1A1,1,0,0,0,0,1V16.64a1,1,0,0,0,1,.95H121.79a1,1,0,0,0,.95-.95V1A1,1,0,0,0,121.79,0ZM16.59,5.35H11.44v11H6.31v-11H1.18V1.22H16.59ZM36,16.37H30.88V10.85H24.11v5.52H19V1.22h5.13v5.5h6.77V1.22H36Zm17.48-11h-9V6.72h9v4.13h-9v1.37h9v4.15H39.35V1.22H53.49Zm19.94,11H68.14l-4.41-5.49h-1.8v5.49H56.78V1.22h11.8a5.08,5.08,0,0,1,2,.39,4.51,4.51,0,0,1,1.53,1.06,4.59,4.59,0,0,1,1,1.55,5,5,0,0,1,.34,1.87,5,5,0,0,1-.37,2,4.25,4.25,0,0,1-1,1.44,4.72,4.72,0,0,1-1.42.93,5.62,5.62,0,0,1-1.68.43Zm25,0H93.28V9.88L89.6,16.37H84.84l-3.66-6.6v6.6H76.05V1.22h5.13l6.1,11,6-11h5.13Zm17.21,0-1.06-2.25h-7l-1.12,2.25h-5.74l7.49-15.15h5.76l7.49,15.15Z"/></g></g></svg>