<svg xmlns="http://www.w3.org/2000/svg" viewBox="0 0 57.39 65.58"><defs><style>.cls-1{fill:#e2574c;}.cls-2{fill:#b53629;}.cls-3{fill:#fff;}</style></defs><g id="Layer_2" data-name="Layer 2"><g id="Livello_40" data-name="Livello 40"><path class="cls-1" d="M4.1,0H38.93L57.39,18.39V61.48a4.1,4.1,0,0,1-4.1,4.1H4.1A4.1,4.1,0,0,1,0,61.48V4.1A4.1,4.1,0,0,1,4.1,0Z"/><path class="cls-2" d="M57.33,18.45H43a4.11,4.11,0,0,1-4.1-4.1V0Z"/><path class="cls-3" d="M42,31.08a1.19,1.19,0,0,0,0-2.36H38.1a1.22,1.22,0,0,0-1.19,1.33v9.61c0,.86.49,1.33,1.15,1.33s1.14-.47,1.14-1.33V37h2.37a1.11,1.11,0,0,0,1.1-1.19,1.09,1.09,0,0,0-1.1-1.17H39.2V31.08ZM28.79,28.72H25.93A1.27,1.27,0,0,0,24.6,30v9.63A1.27,1.27,0,0,0,26,41h3a5.57,5.57,0,0,0,5.9-6C34.87,31.19,32.66,28.72,28.79,28.72Zm.14,9.86H27.19V31.09h1.57c2.38,0,3.41,1.6,3.41,3.8S31.16,38.58,28.93,38.58ZM18.45,28.72H15.62a1.19,1.19,0,0,0-1.25,1.33v9.61a1.21,1.21,0,1,0,2.4,0V36.85h1.78a3.88,3.88,0,0,0,4-4.05A3.93,3.93,0,0,0,18.45,28.72ZM18.4,34.6H16.77V31H18.4a1.82,1.82,0,0,1,0,3.63Z"/></g></g></svg>